<?xml version="1.0" encoding="utf-8"?>
<!-- Generator: Adobe Illustrator 19.2.1, SVG Export Plug-In . SVG Version: 6.00 Build 0)  -->
<svg version="1.1" id="layer" xmlns="http://www.w3.org/2000/svg" xmlns:xlink="http://www.w3.org/1999/xlink" x="0px" y="0px"
	 viewBox="0 0 652 652" style="enable-background:new 0 0 652 652;" xml:space="preserve">
<style type="text/css">
	.st0{fill:#FFF02A;}
	.st1{fill:#EB212E;}
	.st2{fill:#FFFFFF;}
	.st3{fill:#0096D7;}
</style>
<polygon class="st0" points="430.4,83.4 462.5,83.4 462.5,512.3 180.9,512.3 180.9,425.1 "/>
<polygon class="st1" points="180.8,83.3 180.9,424.4 430.4,83.4 "/>
<path class="st2" d="M475.1,524.6H168.4V70.9h306.8V524.6z M180,513h283.6V82.5H180V513z"/>
<path d="M175,77.5V518h293.6V77.5H175z M456.9,89.1v417.3H186.5V89.1H456.9z"/>
<polygon class="st3" points="426.2,89.1 175.5,431.4 204.7,432.8 424,135.3 "/>
<polygon points="395.1,291.4 280,215.3 404.2,153 "/>
<polygon points="388,417.9 302.9,418 345.7,343.7 "/>
<path class="st1" d="M325.1,459.7c0.2-17.5,38.8-16.1,54.7,0H325.1z"/>
<path d="M189,564.3l-4.7,6h-11.6l22-29.1h8.5l21.4,29.1h-11.8l-4.3-6L189,564.3z M198.5,549.5h-0.2l-6.2,10.3h13.5L198.5,549.5z"/>
<polygon points="262.2,565.5 277.7,565.5 277.7,570.3 251.2,570.3 251.2,541.9 262.2,541.9 "/>
<polygon points="322.9,570.3 311.8,570.3 311.8,546.7 300.5,546.7 300.5,541.9 334.3,541.9 334.3,546.7 322.9,546.7 "/>
<polygon points="372.5,546.7 372.5,552.9 390,552.9 390,557.8 372.5,557.8 372.5,565.6 390.7,565.6 390.7,570.3 361.5,570.3 
	361.5,541.9 390.7,541.9 390.7,546.7 "/>
<polygon points="421.2,541.2 429.1,541.2 458.8,561 459,561 459,541.9 470,541.9 470,570.9 462,570.9 432.3,551 432.2,551 
	432.2,570.3 421.2,570.3 "/>
</svg>
